<?xml version="1.0" encoding="UTF-8" standalone="no"?>
<!DOCTYPE svg PUBLIC "-//W3C//DTD SVG 1.1//EN" "http://www.w3.org/Graphics/SVG/1.1/DTD/svg11.dtd">
<svg width="100%" height="100%" viewBox="0 0 800 500" version="1.1" xmlns="http://www.w3.org/2000/svg" xmlns:xlink="http://www.w3.org/1999/xlink" xml:space="preserve" xmlns:serif="http://www.serif.com/" style="fill-rule:evenodd;clip-rule:evenodd;stroke-linecap:round;stroke-linejoin:round;stroke-miterlimit:1.5;">
    <g transform="matrix(1,0,0,1,-783.897,-375.022)">
        <path d="M783.897,609.346L1000.7,581.247L1126.39,594.671L1165.82,524.913L1167.65,466.713L1179.63,392.788L1189.12,375.022L1197.4,394.078L1199.68,468.034L1196.53,522.923L1229.74,592.675L1319.21,579.046L1566.31,607.947L1557.03,625.022L1464.8,660.406L1348.58,689.488L1247.11,713.239L1224.99,724.036L1210.13,772.647L1196.76,812.3L1192.42,841.957L1172.21,875.022L1150.17,840.671L1145.06,813.663L1129.34,770.648L1117.82,726.467L1095.32,711.984L1001.27,694.158L855.239,659.064L787.563,620.106L783.897,609.346Z" style="fill:none;stroke:black;stroke-width:1px;"/>
    </g>
</svg>
